<svg width="1200" height="720" viewBox="0 0 1200 720" fill="none" xmlns="http://www.w3.org/2000/svg">
  <rect width="1200" height="720" rx="36" fill="#07101E"/>
  <rect x="58" y="58" width="1084" height="604" rx="28" fill="#0D1728" stroke="#24324B"/>
  <text x="92" y="118" fill="#F2F6FF" font-family="Arial, sans-serif" font-size="34" font-weight="700">Mini2P / Computational Neuroscience Pipeline</text>
  <text x="92" y="154" fill="#97A9C8" font-family="Arial, sans-serif" font-size="20">Representative visual for imaging frames, neural traces, behavior sync, and QC-driven analysis.</text>

  <rect x="92" y="206" width="276" height="304" rx="24" fill="#111B2E" stroke="#293752"/>
  <rect x="124" y="238" width="212" height="212" rx="18" fill="#0A1220"/>
  <circle cx="192" cy="308" r="16" fill="#57D4FF" fill-opacity="0.85"/>
  <circle cx="252" cy="274" r="10" fill="#9EF5D1" fill-opacity="0.85"/>
  <circle cx="234" cy="350" r="12" fill="#FFB86B" fill-opacity="0.85"/>
  <circle cx="292" cy="330" r="14" fill="#57D4FF" fill-opacity="0.85"/>
  <circle cx="176" cy="374" r="8" fill="#9EF5D1" fill-opacity="0.85"/>
  <text x="124" y="480" fill="#F2F6FF" font-family="Arial, sans-serif" font-size="24" font-weight="700">Imaging Frames</text>

  <rect x="400" y="206" width="334" height="304" rx="24" fill="#111B2E" stroke="#293752"/>
  <path d="M430 416C470 344 510 286 550 296C590 306 630 412 670 386C710 360 750 262 792 244" stroke="#57D4FF" stroke-width="5"/>
  <path d="M430 378C470 386 510 402 550 388C590 374 630 314 670 326C710 338 750 394 792 372" stroke="#9EF5D1" stroke-width="5" stroke-dasharray="12 8"/>
  <path d="M430 338C470 296 510 268 550 284C590 300 630 364 670 350C710 336 750 292 792 314" stroke="#FFB86B" stroke-width="5"/>
  <text x="430" y="480" fill="#F2F6FF" font-family="Arial, sans-serif" font-size="24" font-weight="700">Neural Traces + ΔF/F</text>

  <rect x="766" y="206" width="334" height="304" rx="24" fill="#111B2E" stroke="#293752"/>
  <rect x="800" y="244" width="266" height="54" rx="16" fill="#0A1220"/>
  <rect x="800" y="320" width="266" height="54" rx="16" fill="#0A1220"/>
  <rect x="800" y="396" width="266" height="54" rx="16" fill="#0A1220"/>
  <text x="824" y="278" fill="#F2F6FF" font-family="Arial, sans-serif" font-size="22" font-weight="700">Motion Correction</text>
  <text x="824" y="354" fill="#F2F6FF" font-family="Arial, sans-serif" font-size="22" font-weight="700">CNMF + Deconvolution</text>
  <text x="824" y="430" fill="#F2F6FF" font-family="Arial, sans-serif" font-size="22" font-weight="700">Behavior Sync + QC</text>

  <path d="M368 358H400" stroke="#57D4FF" stroke-width="4"/>
  <path d="M734 358H766" stroke="#57D4FF" stroke-width="4"/>

  <rect x="92" y="548" width="1008" height="62" rx="20" fill="#0A1220" stroke="#233149"/>
  <text x="122" y="588" fill="#8EA2C3" font-family="Arial, sans-serif" font-size="22">Strong stand-in image for Mini2P work until you add real traces, TIFF snapshots, or behavior annotation frames.</text>
</svg>
