<svg width="1200" height="720" viewBox="0 0 1200 720" fill="none" xmlns="http://www.w3.org/2000/svg">
  <rect width="1200" height="720" rx="36" fill="#08101D"/>
  <rect x="72" y="80" width="210" height="120" rx="20" fill="#11203A" stroke="#23314C"/>
  <rect x="350" y="80" width="210" height="120" rx="20" fill="#11203A" stroke="#23314C"/>
  <rect x="628" y="80" width="210" height="120" rx="20" fill="#11203A" stroke="#23314C"/>
  <rect x="906" y="80" width="210" height="120" rx="20" fill="#11203A" stroke="#23314C"/>
  <rect x="210" y="334" width="210" height="120" rx="20" fill="#0E1729" stroke="#23314C"/>
  <rect x="490" y="334" width="210" height="120" rx="20" fill="#0E1729" stroke="#23314C"/>
  <rect x="770" y="334" width="210" height="120" rx="20" fill="#0E1729" stroke="#23314C"/>
  <path d="M282 140H350" stroke="#57D4FF" stroke-width="4"/>
  <path d="M560 140H628" stroke="#57D4FF" stroke-width="4"/>
  <path d="M838 140H906" stroke="#57D4FF" stroke-width="4"/>
  <path d="M455 200V280H315V334" stroke="#9EF5D1" stroke-width="4"/>
  <path d="M733 200V280H595V334" stroke="#9EF5D1" stroke-width="4"/>
  <path d="M1011 200V280H875V334" stroke="#9EF5D1" stroke-width="4"/>
  <circle cx="178" cy="140" r="20" fill="#57D4FF"/>
  <circle cx="456" cy="140" r="20" fill="#9EF5D1"/>
  <circle cx="734" cy="140" r="20" fill="#FFB86B"/>
  <circle cx="1012" cy="140" r="20" fill="#57D4FF"/>
  <text x="106" y="632" fill="#9FB2D4" font-family="Arial, sans-serif" font-size="26">Replace with LangGraph workflow, system diagram, or agent architecture</text>
</svg>
