<svg width="1200" height="720" viewBox="0 0 1200 720" fill="none" xmlns="http://www.w3.org/2000/svg">
  <rect width="1200" height="720" rx="36" fill="#07101E"/>
  <rect x="58" y="58" width="1084" height="604" rx="28" fill="#0D1728" stroke="#24324B"/>
  <text x="92" y="118" fill="#F2F6FF" font-family="Arial, sans-serif" font-size="34" font-weight="700">Intelligent Document Processor</text>
  <text x="92" y="154" fill="#97A9C8" font-family="Arial, sans-serif" font-size="20">An OCR-to-JSON backend pipeline with clear processing stages and service boundaries.</text>

  <rect x="96" y="212" width="172" height="310" rx="24" fill="#111B2E" stroke="#293752"/>
  <rect x="128" y="246" width="108" height="142" rx="16" fill="#0A1220"/>
  <rect x="146" y="272" width="72" height="8" rx="4" fill="#57D4FF" fill-opacity="0.45"/>
  <rect x="146" y="294" width="54" height="8" rx="4" fill="#96A8C8" fill-opacity="0.25"/>
  <rect x="146" y="316" width="66" height="8" rx="4" fill="#96A8C8" fill-opacity="0.25"/>
  <text x="128" y="432" fill="#F2F6FF" font-family="Arial, sans-serif" font-size="24" font-weight="700">Input</text>
  <text x="128" y="464" fill="#95A7C7" font-family="Arial, sans-serif" font-size="18">PDFs, scans, images</text>

  <rect x="314" y="212" width="172" height="310" rx="24" fill="#111B2E" stroke="#293752"/>
  <rect x="346" y="248" width="108" height="76" rx="16" fill="#0A1220"/>
  <rect x="346" y="344" width="108" height="76" rx="16" fill="#0A1220"/>
  <text x="346" y="456" fill="#F2F6FF" font-family="Arial, sans-serif" font-size="24" font-weight="700">OCR Layer</text>
  <text x="346" y="486" fill="#95A7C7" font-family="Arial, sans-serif" font-size="18">Tesseract + cleanup</text>

  <rect x="532" y="212" width="172" height="310" rx="24" fill="#111B2E" stroke="#293752"/>
  <rect x="564" y="246" width="108" height="176" rx="16" fill="#0A1220"/>
  <rect x="586" y="272" width="64" height="12" rx="6" fill="#9EF5D1" fill-opacity="0.45"/>
  <rect x="586" y="304" width="48" height="10" rx="5" fill="#96A8C8" fill-opacity="0.25"/>
  <rect x="586" y="330" width="56" height="10" rx="5" fill="#96A8C8" fill-opacity="0.25"/>
  <rect x="586" y="356" width="52" height="10" rx="5" fill="#96A8C8" fill-opacity="0.25"/>
  <text x="564" y="456" fill="#F2F6FF" font-family="Arial, sans-serif" font-size="24" font-weight="700">Normalize</text>
  <text x="564" y="486" fill="#95A7C7" font-family="Arial, sans-serif" font-size="18">Parsing + JSON schema</text>

  <rect x="750" y="212" width="172" height="310" rx="24" fill="#111B2E" stroke="#293752"/>
  <rect x="782" y="246" width="108" height="176" rx="16" fill="#0A1220"/>
  <text x="782" y="456" fill="#F2F6FF" font-family="Arial, sans-serif" font-size="24" font-weight="700">Storage</text>
  <text x="782" y="486" fill="#95A7C7" font-family="Arial, sans-serif" font-size="18">PostgreSQL + metadata</text>

  <rect x="968" y="212" width="132" height="310" rx="24" fill="#111B2E" stroke="#293752"/>
  <rect x="992" y="248" width="84" height="54" rx="14" fill="#0A1220"/>
  <rect x="992" y="324" width="84" height="54" rx="14" fill="#0A1220"/>
  <text x="990" y="456" fill="#F2F6FF" font-family="Arial, sans-serif" font-size="24" font-weight="700">API</text>
  <text x="990" y="486" fill="#95A7C7" font-family="Arial, sans-serif" font-size="18">REST delivery</text>

  <path d="M268 366H314" stroke="#57D4FF" stroke-width="4"/>
  <path d="M486 366H532" stroke="#57D4FF" stroke-width="4"/>
  <path d="M704 366H750" stroke="#57D4FF" stroke-width="4"/>
  <path d="M922 366H968" stroke="#57D4FF" stroke-width="4"/>

  <text x="92" y="610" fill="#8EA2C3" font-family="Arial, sans-serif" font-size="22">Good enough to communicate the pipeline even before you have polished architecture screenshots.</text>
</svg>
