<svg width="1200" height="720" viewBox="0 0 1200 720" fill="none" xmlns="http://www.w3.org/2000/svg">
  <rect width="1200" height="720" rx="36" fill="#07101E"/>
  <rect x="48" y="48" width="1104" height="624" rx="28" fill="#0D1728" stroke="#24324B"/>
  <rect x="88" y="88" width="1024" height="154" rx="28" fill="#121D31" stroke="#2A3954"/>
  <text x="112" y="148" fill="#F2F6FF" font-family="Arial, sans-serif" font-size="34" font-weight="700">MouseBase Dashboard</text>
  <text x="112" y="186" fill="#96A8C8" font-family="Arial, sans-serif" font-size="20">Track colonies, breeding, procedures, and scheduling from one place.</text>
  <rect x="112" y="208" width="110" height="36" rx="18" fill="#23405E"/>
  <rect x="236" y="208" width="82" height="36" rx="18" fill="#1A2436"/>
  <rect x="332" y="208" width="110" height="36" rx="18" fill="#1A2436"/>
  <rect x="456" y="208" width="104" height="36" rx="18" fill="#1A2436"/>
  <rect x="574" y="208" width="120" height="36" rx="18" fill="#1A2436"/>
  <rect x="708" y="208" width="96" height="36" rx="18" fill="#1A2436"/>
  <rect x="818" y="208" width="94" height="36" rx="18" fill="#1A2436"/>
  <rect x="926" y="208" width="88" height="36" rx="18" fill="#1A2436"/>
  <rect x="994" y="104" width="76" height="36" rx="18" fill="#2E394C"/>
  <text x="1015" y="128" fill="#F3F7FF" font-family="Arial, sans-serif" font-size="18" font-weight="700">admin</text>
  <rect x="994" y="152" width="76" height="36" rx="18" fill="#202A3B"/>
  <text x="1016" y="176" fill="#F3F7FF" font-family="Arial, sans-serif" font-size="18" font-weight="700">Sign Out</text>

  <rect x="88" y="268" width="1024" height="356" rx="28" fill="#111A2C" stroke="#2A3954"/>
  <text x="112" y="324" fill="#F2F6FF" font-family="Arial, sans-serif" font-size="28" font-weight="700">Dashboard</text>
  <text x="112" y="358" fill="#95A7C7" font-family="Arial, sans-serif" font-size="20">A working overview of the colony and the tasks the lab needs every day.</text>
  <rect x="714" y="304" width="118" height="44" rx="16" fill="#4EB4F2"/>
  <rect x="846" y="304" width="150" height="44" rx="16" fill="#242D3E"/>
  <rect x="1010" y="304" width="76" height="44" rx="16" fill="#242D3E"/>
  <text x="744" y="333" fill="#07111B" font-family="Arial, sans-serif" font-size="16" font-weight="700">Add Mouse</text>
  <text x="871" y="333" fill="#F3F7FF" font-family="Arial, sans-serif" font-size="16" font-weight="700">Add Pair</text>
  <text x="1030" y="333" fill="#F3F7FF" font-family="Arial, sans-serif" font-size="16" font-weight="700">Calendar</text>

  <rect x="112" y="388" width="178" height="88" rx="20" fill="#0F1728" stroke="#2A3954"/>
  <rect x="306" y="388" width="178" height="88" rx="20" fill="#0F1728" stroke="#2A3954"/>
  <rect x="500" y="388" width="178" height="88" rx="20" fill="#0F1728" stroke="#2A3954"/>
  <rect x="694" y="388" width="178" height="88" rx="20" fill="#0F1728" stroke="#2A3954"/>
  <rect x="888" y="388" width="178" height="88" rx="20" fill="#0F1728" stroke="#2A3954"/>
  <text x="132" y="424" fill="#90A1C0" font-family="Arial, sans-serif" font-size="18">Total mice</text>
  <text x="132" y="462" fill="#F4F7FD" font-family="Arial, sans-serif" font-size="42" font-weight="700">63</text>
  <text x="326" y="424" fill="#90A1C0" font-family="Arial, sans-serif" font-size="18">Active strains</text>
  <text x="326" y="462" fill="#F4F7FD" font-family="Arial, sans-serif" font-size="42" font-weight="700">4</text>
  <text x="520" y="424" fill="#90A1C0" font-family="Arial, sans-serif" font-size="18">Training mice</text>
  <text x="520" y="462" fill="#F4F7FD" font-family="Arial, sans-serif" font-size="42" font-weight="700">1</text>
  <text x="714" y="424" fill="#90A1C0" font-family="Arial, sans-serif" font-size="18">Breeding records</text>
  <text x="714" y="462" fill="#F4F7FD" font-family="Arial, sans-serif" font-size="42" font-weight="700">1</text>
  <text x="908" y="424" fill="#90A1C0" font-family="Arial, sans-serif" font-size="18">Calendar events</text>
  <text x="908" y="462" fill="#F4F7FD" font-family="Arial, sans-serif" font-size="42" font-weight="700">1</text>

  <rect x="112" y="500" width="676" height="98" rx="22" fill="#0D1524" stroke="#26344D"/>
  <text x="136" y="540" fill="#F2F6FF" font-family="Arial, sans-serif" font-size="22" font-weight="700">Npsr1-IRES-Flp Colony</text>
  <text x="136" y="570" fill="#8EA2C3" font-family="Arial, sans-serif" font-size="18">Live records, cage assignments, genotype tracking, and procedure history.</text>
  <rect x="644" y="526" width="118" height="44" rx="16" fill="#F4A72C"/>
  <text x="686" y="555" fill="#111A28" font-family="Arial, sans-serif" font-size="18" font-weight="700">Edit</text>

  <rect x="814" y="500" width="252" height="98" rx="22" fill="#0D1524" stroke="#26344D"/>
  <text x="838" y="540" fill="#F2F6FF" font-family="Arial, sans-serif" font-size="22" font-weight="700">Upcoming Events</text>
  <text x="838" y="570" fill="#8EA2C3" font-family="Arial, sans-serif" font-size="18">Reminders, procedures, and colony follow-up tasks.</text>

  <text x="78" y="692" fill="#8EA2C3" font-family="Arial, sans-serif" font-size="24">Illustrative dashboard visual based on the actual project direction</text>
</svg>
